<svg xmlns="http://www.w3.org/2000/svg" viewBox="0 0 64 64">
  <defs>
    <linearGradient id="g" x1="0" y1="0" x2="1" y2="1">
      <stop offset="0" stop-color="#5b9dff"/>
      <stop offset="1" stop-color="#a05bff"/>
    </linearGradient>
  </defs>
  <rect x="0" y="0" width="64" height="64" rx="14" fill="#0b1020"/>
  <g fill="url(#g)">
    <path d="M8 38l16-6 8-14c1-2 3-3 5-2l5 2c2 1 3 3 2 5l-8 14 16 6c1 0 2 1 2 2s-1 2-2 2l-18-4-4 6c-1 2-3 2-5 1l-3-3c-1-1-1-3 0-5l4-6-18 4c-1 0-2-1-2-2s1-2 2-2z"/>
    <circle cx="46" cy="18" r="3" fill="#fff" opacity="0.9"/>
  </g>
</svg>